HIERARCHY
ROOT Hips
{
	OFFSET -1.775099 105.205612 -1.111724
	CHANNELS 6 Xposition Yposition Zposition Xrotation Yrotation Zrotation
	JOINT Chest
	{
		OFFSET 0.143033 13.537979 1.690254
		CHANNELS 3 Xrotation Yrotation Zrotation
		JOINT Chest2
		{
			OFFSET -0.841057 21.159714 3.259764
			CHANNELS 3 Xrotation Yrotation Zrotation
			JOINT Chest3
			{
				OFFSET -0.621230 14.892471 -0.805285
				CHANNELS 3 Xrotation Yrotation Zrotation
				JOINT Neck
				{
					OFFSET 0.154307 17.170044 1.944633
					CHANNELS 3 Xrotation Yrotation Zrotation
					JOINT Head
					{
						OFFSET -0.334314 10.369904 1.476866
						CHANNELS 3 Xrotation Yrotation Zrotation
						End Site
						{
							OFFSET -0.328768 10.380096 1.404712
						}
					}
				}
				JOINT LeftCollar
				{
					OFFSET 4.374172 12.819092 4.282732
					CHANNELS 3 Xrotation Yrotation Zrotation
					JOINT LeftUpArm
					{
						OFFSET 14.467526 -5.297485 -8.433675
						CHANNELS 3 Xrotation Yrotation Zrotation
						JOINT LeftLowArm
						{
							OFFSET 5.537292 -33.301910 0.221937
							CHANNELS 3 Xrotation Yrotation Zrotation
							JOINT LeftHand
							{
								OFFSET -1.425877 -27.875862 11.038588
								CHANNELS 3 Xrotation Yrotation Zrotation
								End Site
								{
									OFFSET -0.311634 -6.092438 2.412535
								}
							}
						}
					}
				}
				JOINT RightCollar
				{
					OFFSET -4.040908 12.878067 4.431172
					CHANNELS 3 Xrotation Yrotation Zrotation
					JOINT RightUpArm
					{
						OFFSET -14.299240 -6.025635 -8.229208
						CHANNELS 3 Xrotation Yrotation Zrotation
						JOINT RightLowArm
						{
							OFFSET -5.450964 -33.306107 -0.851438
							CHANNELS 3 Xrotation Yrotation Zrotation
							JOINT RightHand
							{
								OFFSET 2.661173 -27.767479 11.083323
								CHANNELS 3 Xrotation Yrotation Zrotation
								End Site
								{
									OFFSET 0.581615 -6.068863 2.422366
								}
							}
						}
					}
				}
			}
		}
	}
	JOINT LeftUpLeg
	{
		OFFSET 10.005549 -0.171822 0.527820
		CHANNELS 3 Xrotation Yrotation Zrotation
		JOINT LeftLowLeg
		{
			OFFSET 4.732321 -46.924496 -4.437066
			CHANNELS 3 Xrotation Yrotation Zrotation
			JOINT LeftFoot
			{
				OFFSET 2.294054 -42.632004 -13.334879
				CHANNELS 3 Xrotation Yrotation Zrotation
				JOINT LeftToe
				{
					OFFSET 0.059477 -16.731436 16.721704
					CHANNELS 3 Xrotation Yrotation Zrotation
					End Site
					{
						OFFSET 0.541171 -2.322977 23.534437
					}
				}
			}
		}
	}
	JOINT RightUpLeg
	{
		OFFSET -10.005555 0.171623 -0.527845
		CHANNELS 3 Xrotation Yrotation Zrotation
		JOINT RightLowLeg
		{
			OFFSET -0.757182 -47.109993 -4.907955
			CHANNELS 3 Xrotation Yrotation Zrotation
			JOINT RightFoot
			{
				OFFSET 3.305256 -42.818218 -12.500244
				CHANNELS 3 Xrotation Yrotation Zrotation
				JOINT RightToe
				{
					OFFSET -3.051862 -17.089970 16.067863
					CHANNELS 3 Xrotation Yrotation Zrotation
					End Site
					{
						OFFSET -7.190549 -3.022931 22.331903
					}
				}
			}
		}
	}
}
MOTION
Frames: 15
Frame Time: 0.033333
6.358565 105.930634 -8.487756 -36.033722 -43.029652 -28.913379 10.996664 1.461455 -5.146618 6.556434 3.074645 -8.558286 -12.512307 20.811187 15.292194 14.148440 -2.244219 -2.749275 0.000001 0.000002 0.000000 -11.096716 -1.343663 24.717488 -9.118649 17.977188 55.671680 -24.176839 19.113176 9.831289 0.000002 -0.000009 -0.000001 -9.359296 11.497440 -12.980826 -26.166900 3.459748 -43.925657 -22.896136 -16.120863 -12.886542 -0.000005 0.000001 0.000002 -61.741509 2.817878 -9.687448 31.151858 -3.938273 2.973449 -0.649189 13.819042 1.961670 0.000002 -0.000002 -0.000001 13.626560 -2.806158 -3.330754 20.424726 6.394951 5.965663 -16.497880 -4.724742 -3.868151 -0.000001 -0.000000 0.000001 
6.377092 105.816856 -8.628946 -37.174841 -42.934313 -29.737220 11.725776 1.448129 -5.461834 6.109683 2.921774 -8.133470 -12.056049 21.389467 15.058983 14.041023 -2.307385 -2.641552 0.000001 -0.000001 0.000000 -10.735074 -1.415529 24.579701 -8.514782 18.189140 55.614744 -24.835160 18.474857 10.666075 0.000004 -0.000004 -0.000001 -9.074997 11.523819 -12.663350 -25.698500 3.834359 -44.042993 -23.085838 -15.708989 -13.816464 0.000001 -0.000003 0.000003 -64.092685 2.161754 -8.651860 31.205393 -4.116885 2.005592 0.094780 15.410457 2.217982 -0.000001 0.000005 0.000007 14.538946 -2.910636 -3.688061 20.689683 6.503862 5.972031 -16.092805 -5.187558 -3.920196 -0.000001 0.000001 0.000001 
6.369203 105.691574 -8.743768 -38.340102 -43.011603 -31.037889 12.150684 1.381394 -5.219781 5.863104 2.785283 -7.897369 -11.745939 22.298047 14.934222 13.814367 -2.413423 -2.557668 0.000001 -0.000001 0.000000 -10.760854 -0.893264 24.947831 -8.438520 18.173918 55.183912 -25.852768 18.267597 10.209788 -0.000001 -0.000004 0.000002 -9.037477 11.244956 -12.510905 -25.598538 3.863931 -43.642836 -23.551749 -15.658238 -14.206431 -0.000001 0.000005 0.000004 -66.925554 1.250614 -7.304935 31.896471 -4.234367 1.026812 0.392856 16.469483 2.433355 -0.000002 -0.000003 0.000001 15.572620 -3.105382 -3.889234 21.101089 6.617419 5.820964 -15.709244 -5.840393 -4.016405 0.000000 -0.000002 0.000001 
6.355835 105.566620 -8.850119 -40.114111 -43.693041 -32.611155 12.606525 1.349887 -5.146490 6.066349 3.126774 -8.467742 -12.337363 23.001237 15.662817 13.875862 -2.383101 -2.574418 -0.000001 0.000002 0.000001 -10.811309 -0.617356 24.758801 -8.319716 18.146660 54.929051 -26.292274 18.111816 10.111299 0.000000 -0.000006 0.000002 -8.938696 11.326636 -12.227771 -25.480454 3.885665 -43.471733 -24.078556 -15.503191 -14.218881 -0.000000 -0.000002 0.000003 -69.399134 -0.008730 -5.690090 31.802737 -4.255652 0.257334 1.749892 18.095037 2.456903 0.000000 -0.000000 0.000004 16.445236 -3.274174 -4.708097 21.571419 6.804173 5.986399 -15.501553 -6.591020 -4.059524 -0.000000 -0.000004 0.000002 
6.346811 105.443123 -8.957380 -41.115277 -44.160988 -33.654138 13.009600 1.327531 -5.009791 6.312845 3.405578 -9.009237 -12.718747 23.263976 15.981330 13.525423 -2.483084 -2.565720 0.000001 -0.000001 -0.000001 -10.809463 -0.456861 24.614678 -8.348810 18.308049 55.220529 -26.617524 18.082204 10.105191 -0.000004 -0.000009 -0.000000 -8.791465 12.114530 -11.746521 -25.591500 3.779721 -43.600724 -24.316216 -15.493692 -14.718761 -0.000001 -0.000004 -0.000001 -71.325548 -0.720390 -4.782339 32.123650 -4.303281 -1.717711 1.076817 19.716702 3.072857 0.000001 -0.000003 -0.000002 16.610209 -3.428010 -4.953399 22.005908 6.839482 6.154016 -15.494691 -7.084089 -4.212464 -0.000001 -0.000002 0.000000 
6.320522 105.308754 -9.049904 -42.444476 -44.658410 -35.245064 13.781671 1.287756 -5.250530 6.062024 3.309016 -8.858513 -13.101846 24.128203 16.335125 13.573315 -2.404517 -2.681281 -0.000000 -0.000001 0.000001 -10.541956 -0.829769 24.452057 -8.200075 18.748323 55.331192 -27.090856 18.097614 10.179848 -0.000003 -0.000008 -0.000001 -8.764944 12.283506 -11.192374 -25.772894 4.036220 -43.507704 -24.498823 -15.725595 -14.661793 -0.000003 0.000002 0.000000 -73.351205 -1.867923 -3.573749 31.869304 -4.449132 -3.294999 1.035724 21.045367 3.393116 -0.000000 -0.000003 -0.000002 17.165399 -3.517397 -5.267699 22.386700 6.921703 6.714517 -15.741163 -7.806323 -4.581396 -0.000001 -0.000004 0.000001 
6.292897 105.169327 -9.133186 -44.074562 -45.217375 -36.800404 13.970187 1.268858 -4.932116 7.051305 3.676909 -9.717716 -14.032774 23.702776 16.903231 13.613959 -2.058625 -3.182101 0.000000 -0.000001 -0.000001 -10.880902 -0.184677 24.484755 -8.372145 19.365432 55.774597 -27.280476 18.410346 9.281151 -0.000001 -0.000006 -0.000001 -8.883862 12.687781 -10.782977 -26.023782 3.763017 -43.383190 -24.838290 -16.039115 -14.202902 -0.000003 0.000005 0.000004 -74.908460 -3.091530 -2.316637 30.985836 -4.481019 -4.599919 1.341938 23.116480 3.835675 0.000002 0.000001 -0.000000 17.511061 -3.644303 -5.821849 23.440316 7.108733 6.540667 -15.961951 -7.647807 -4.679120 -0.000000 -0.000000 -0.000001 
6.270789 105.035553 -9.216385 -45.096023 -45.162713 -37.475400 14.638053 1.228379 -5.078452 7.212334 3.488328 -9.411202 -14.384590 23.794608 16.692260 13.777661 -1.925862 -3.287111 0.000000 -0.000005 -0.000001 -10.689143 -0.543694 24.260639 -7.994825 20.048410 55.912246 -27.506406 18.254589 9.265955 -0.000002 -0.000005 0.000001 -8.932605 12.386563 -10.799631 -26.042543 3.706024 -42.867131 -25.134232 -15.883550 -14.321658 -0.000004 -0.000001 0.000004 -75.863246 -3.627939 -1.834429 30.401462 -4.457845 -5.364566 2.493329 23.919703 3.754843 0.000004 -0.000001 -0.000002 17.904998 -3.713577 -6.436211 24.118783 7.225647 6.680185 -15.906792 -7.819630 -4.733686 -0.000000 -0.000004 -0.000001 
6.238754 104.896385 -9.280940 -46.231249 -44.916751 -38.388259 15.418534 1.181464 -5.147853 7.185253 3.338429 -9.199982 -14.418499 23.933432 16.594706 14.061885 -1.864201 -3.440324 -0.000000 0.000003 0.000001 -10.791289 -0.779402 24.241110 -7.956174 20.465188 56.194019 -26.780688 18.578439 8.595274 0.000000 -0.000005 0.000000 -9.115121 12.709578 -10.351693 -26.399088 3.718377 -42.014222 -25.294378 -15.988149 -13.532367 -0.000003 0.000002 0.000001 -76.652809 -4.169617 -1.328989 29.590941 -4.325893 -6.137565 3.674594 23.926615 3.391778 0.000004 0.000001 -0.000000 18.367292 -3.790084 -6.604342 25.038709 7.284830 6.665266 -16.078364 -7.798333 -4.860623 -0.000001 -0.000002 0.000000 
6.193160 104.750656 -9.338336 -48.074710 -45.985690 -40.727127 15.299928 1.152715 -4.823749 7.653361 3.798913 -9.998028 -15.048387 24.382194 17.472404 14.348800 -1.458433 -3.769029 -0.000000 -0.000004 0.000001 -10.574514 -0.403537 24.436875 -7.430254 20.284164 55.732418 -26.248647 18.087360 9.405954 0.000003 -0.000004 -0.000001 -8.836778 12.523896 -10.181187 -26.274343 4.355108 -41.505379 -25.977904 -15.340887 -13.552548 -0.000003 0.000001 -0.000001 -77.847184 -5.763250 0.251512 29.131969 -4.382422 -7.171893 4.887395 24.577058 3.210812 0.000002 0.000001 0.000003 18.414100 -3.789724 -6.648241 26.026304 7.459840 6.206203 -16.004783 -6.225849 -4.536183 -0.000000 -0.000004 0.000000 
6.154688 104.616180 -9.415357 -49.053773 -45.903338 -41.455454 15.623061 1.123096 -4.807007 8.089263 3.713119 -9.961858 -15.420195 24.401715 17.407591 14.310448 -1.710438 -3.674743 0.000000 0.000002 -0.000001 -10.446528 -0.653023 24.268904 -7.385351 20.521104 55.738083 -26.307003 17.909895 9.211611 0.000003 -0.000004 -0.000002 -8.927243 12.214772 -9.865062 -26.768690 4.538704 -41.144008 -25.834161 -15.398134 -13.035145 -0.000004 0.000001 0.000001 -78.465719 -5.626405 0.058231 28.922863 -4.489745 -7.662697 4.994271 25.349743 3.348973 0.000001 0.000002 0.000001 18.845750 -3.903057 -7.143759 26.322236 7.625182 6.590289 -16.075004 -6.336759 -4.557138 -0.000000 0.000001 -0.000001 
6.109203 104.475189 -9.495885 -50.427133 -46.320168 -43.043354 15.786966 1.123073 -4.980306 8.213109 3.620450 -9.901165 -15.787936 25.146417 17.889273 14.665733 -1.526358 -3.953421 0.000001 -0.000001 -0.000000 -10.635244 -0.413189 24.290041 -7.623619 20.821477 55.914029 -26.542605 18.278633 8.570491 0.000003 -0.000007 0.000001 -9.063220 12.742463 -9.056902 -27.405139 4.788312 -40.709123 -25.477253 -15.945594 -12.499279 -0.000002 0.000000 -0.000000 -79.044263 -6.270167 0.701646 28.473802 -4.508222 -9.015962 4.797631 26.397443 3.604970 0.000001 -0.000001 -0.000002 19.058243 -3.999893 -7.279434 27.066807 7.787315 6.320431 -16.069212 -6.957137 -4.801609 0.000000 -0.000000 0.000000 
6.055612 104.339790 -9.577648 -51.887267 -46.799988 -44.545135 15.710325 1.103569 -5.131222 8.671402 3.869341 -10.373254 -16.631999 26.417162 18.730706 13.540580 -2.657757 -2.462739 -0.000000 0.000001 0.000000 -9.560352 -2.254521 23.396330 -6.556649 21.610124 55.777077 -26.869739 17.599804 11.222470 0.000002 -0.000009 0.000001 -8.754441 12.319166 -8.708950 -27.110346 5.454285 -40.300080 -25.611767 -15.288941 -13.119561 -0.000004 -0.000001 0.000003 -79.571103 -6.855656 1.259719 28.231865 -4.380484 -9.723047 4.157313 27.394603 4.150194 0.000001 0.000002 0.000003 19.228116 -4.039088 -7.338179 27.904210 7.814358 5.726632 -15.975739 -6.719874 -4.857134 -0.000000 -0.000004 -0.000001 
6.000919 104.208969 -9.654245 -52.426500 -46.579363 -44.984633 15.891525 1.074155 -5.064878 9.020535 3.887996 -10.404379 -16.818856 26.358856 18.665582 13.174775 -2.938277 -2.032029 0.000000 -0.000001 0.000000 -9.126284 -2.718447 23.003486 -6.161389 21.612568 55.663269 -26.581628 17.382015 12.384527 0.000001 -0.000008 0.000003 -8.504129 12.401685 -8.532234 -27.086032 6.044919 -39.903102 -25.424391 -15.045158 -13.733253 -0.000004 -0.000002 -0.000003 -79.630696 -6.944953 1.331531 27.894450 -4.416183 -9.741985 4.093368 27.625815 4.275081 0.000001 -0.000001 -0.000001 19.521843 -4.027078 -7.269486 28.434091 7.930987 5.402634 -15.991071 -7.031045 -4.996483 -0.000000 0.000001 -0.000001 
5.949682 104.084511 -9.733041 -53.095729 -46.705906 -45.504793 16.163221 1.078648 -5.765763 8.693955 3.745905 -10.096779 -17.049989 27.091628 19.108033 13.503308 -3.005207 -1.912491 0.000000 0.000001 0.000000 -8.908575 -3.132700 22.714947 -5.816312 21.969848 55.625245 -26.455368 17.149652 13.408730 0.000004 -0.000009 -0.000000 -8.480420 12.390334 -8.209482 -26.981255 5.974544 -39.578802 -25.384833 -14.875279 -14.022518 -0.000003 0.000000 -0.000000 -79.672108 -6.840062 1.223922 27.390676 -4.281502 -9.672338 3.733720 27.406967 4.352597 0.000001 0.000000 0.000001 19.501401 -4.011082 -7.078270 29.034065 7.955199 4.666293 -16.142541 -6.087370 -4.819819 0.000000 -0.000004 -0.000001 
